<?xml version="1.0" encoding="utf-8"?>
<!-- Generator: Adobe Illustrator 22.1.0, SVG Export Plug-In . SVG Version: 6.00 Build 0)  -->
<svg version="1.1" id="Warstwa_1" xmlns="http://www.w3.org/2000/svg" xmlns:xlink="http://www.w3.org/1999/xlink" x="0px" y="0px"
	 viewBox="0 0 485.3 319.9" style="enable-background:new 0 0 485.3 319.9;" xml:space="preserve">
<style type="text/css">
	.st0{clip-path:url(#SVGID_2_);}
	.st1{clip-path:url(#SVGID_4_);}
	.st2{stroke:#000000;stroke-width:17;stroke-linecap:round;stroke-miterlimit:10;}
</style>
<g>
	<g>
		<defs>
			<rect id="SVGID_1_" x="268" y="14.9" width="215.8" height="293"/>
		</defs>
		<clipPath id="SVGID_2_">
			<use xlink:href="#SVGID_1_"  style="overflow:visible;"/>
		</clipPath>
		<path class="st0" d="M471,34.6h-18.8v-6.7c0-7.2-5.8-13-13-13H312.8c-7.2,0-13,5.8-13,13v6.7H281c-7.2,0-13,5.8-13,13v16.3
			c0,7.2,5.8,13,13,13l10.5,0.1l19,218.6c0.6,6.7,6.2,11.8,12.9,11.8h105.4c6.7,0,12.3-5.1,12.9-11.8l19-218.6H471
			c7.2,0,13-5.8,13-13V47.5C484,40.4,478.2,34.6,471,34.6L471,34.6z M345.7,214.2c-12.1-12.1-8.3-35.4,8.4-52.2
			c15.4-15.4,36.5-19.9,49.2-11c-3.7,6.8-8.8,13.1-15.7,18.4c-4.5,3.4-9.1,6-13.2,8.3c-2.8,1.5-5.4,3-7.6,4.5
			c-10.7,7.3-18.1,19.3-20.7,32.4C346,214.4,345.8,214.3,345.7,214.2L345.7,214.2z M397.9,205.7c-15,15-35.3,19.6-48.1,11.7
			c14.9-21.4,29.6-28,29.6-28c15.3-7.6,23.3-20.9,26.7-36.1c0.1,0.1,0.2,0.2,0.2,0.2C418.4,165.6,414.6,189,397.9,205.7L397.9,205.7
			z M397.9,205.7"/>
	</g>
</g>
<g>
	<g>
		<defs>
			<rect id="SVGID_3_" x="5.3" y="66.9" width="177.5" height="241"/>
		</defs>
		<clipPath id="SVGID_4_">
			<use xlink:href="#SVGID_3_"  style="overflow:visible;"/>
		</clipPath>
		<path class="st1" d="M172.3,83.1h-15.5v-5.5c0-5.9-4.8-10.7-10.7-10.7h-104c-5.9,0-10.7,4.8-10.7,10.7v5.5H16
			c-5.9,0-10.7,4.8-10.7,10.7v13.4c0,5.9,4.8,10.7,10.7,10.7l8.6,0.1l15.6,179.8c0.5,5.5,5.1,9.7,10.6,9.7h86.7
			c5.5,0,10.1-4.2,10.6-9.7l15.6-179.8h8.6c5.9,0,10.7-4.8,10.7-10.7V93.7C183,87.8,178.2,83.1,172.3,83.1L172.3,83.1z M69.2,230.8
			c-9.9-9.9-6.8-29.2,6.9-42.9c12.7-12.7,30-16.3,40.4-9c-3,5.6-7.2,10.8-12.9,15.2c-3.7,2.8-7.5,4.9-10.8,6.8
			c-2.3,1.3-4.4,2.5-6.2,3.7c-8.8,6-14.9,15.9-17.1,26.6C69.4,231,69.3,230.9,69.2,230.8L69.2,230.8z M112.1,223.9
			c-12.3,12.3-29.1,16.1-39.5,9.6c12.3-17.6,24.3-23.1,24.3-23.1c12.6-6.3,19.2-17.2,22-29.7c0.1,0.1,0.1,0.1,0.2,0.2
			C129,190.9,125.9,210.1,112.1,223.9L112.1,223.9z M112.1,223.9"/>
	</g>
</g>
<line class="st2" x1="248" y1="13.9" x2="188" y2="307.9"/>
</svg>
