<?xml version="1.0" encoding="utf-8"?>
<!-- Generator: Adobe Illustrator 22.1.0, SVG Export Plug-In . SVG Version: 6.00 Build 0)  -->
<svg version="1.1" id="Warstwa_1" xmlns="http://www.w3.org/2000/svg" xmlns:xlink="http://www.w3.org/1999/xlink" x="0px" y="0px"
	 viewBox="0 0 378 90.5" style="enable-background:new 0 0 378 90.5;" xml:space="preserve">
<style type="text/css">
	.st0{fill:#F1F1F1;}
</style>
<g>
	<path class="st0" d="M25.1,27.7c0-2.7,0-5.1-0.1-7.3c0-2.2-0.1-4.2-0.1-5.8c0-1.7-0.1-3-0.1-3.9S24.7,9,24.7,8.9
		c-0.6-0.4-1.3-0.6-2-0.7c-0.7,0-1.5,0-2.2,0c-1,0-2.3,0.2-3.7,0.7c-1.4,0.5-2.8,1.2-4.2,2.1c-1.3,0.9-2.5,2-3.4,3.3
		c-0.9,1.3-1.4,2.8-1.4,4.4c0,0.9,0.1,1.7,0.4,2.2c0.2,0.6,0.5,1,0.9,1.3c0.3,0.3,0.7,0.5,1,0.5c0.3,0.1,0.6,0.1,0.7,0.1
		c0.7,0,1.3-0.1,1.8-0.4c0.5-0.2,0.9-0.5,1.3-0.8c0.4-0.3,0.7-0.5,1.1-0.8c0.3-0.2,0.7-0.4,1.2-0.4c0.4,0,0.7,0.1,1.1,0.2
		c0.4,0.2,0.8,0.4,1.1,0.8c0.3,0.4,0.6,0.8,0.9,1.4c0.2,0.6,0.4,1.3,0.4,2.1c0,1.2-0.2,2.2-0.7,3c-0.5,0.9-1,1.6-1.8,2.1
		c-0.7,0.6-1.5,1-2.5,1.3c-0.9,0.3-1.8,0.4-2.7,0.4c-1.4,0-2.7-0.2-3.8-0.7c-1.1-0.5-2.1-1.1-2.9-2c-0.8-0.8-1.4-1.8-1.8-3
		s-0.6-2.4-0.6-3.6c0-3,0.6-5.7,1.9-8c1.3-2.3,3-4.2,5.1-5.7c2.1-1.5,4.6-2.7,7.3-3.4s5.6-1.1,8.6-1.1c2.7,0,4.9,0.2,6.6,0.5
		c1.7,0.4,3.1,0.8,4.2,1.4c1.1,0.6,1.9,1.3,2.5,2.1c0.6,0.8,1.1,1.6,1.6,2.5c1.8,3.6,3.5,7.2,5.2,10.7c1.7,3.5,3.3,6.9,4.9,10.3
		c1.6,3.3,3.1,6.6,4.6,9.6c1.5,3.1,2.9,6,4.3,8.8v-6.3V30.3c0-2.4,0.1-4.8,0.2-7.1s0.4-4.5,0.8-6.6c0.4-2.1,1.1-4,1.9-5.7
		c0.8-1.7,2-3.2,3.4-4.5c1.4-1.3,3.2-2.2,5.3-2.9s4.6-1.1,7.6-1.1c1.5,0,2.9,0.1,4.1,0.3c1.3,0.2,2.4,0.5,3.3,0.9
		c0.9,0.4,1.6,0.9,2.2,1.5c0.5,0.6,0.8,1.3,0.8,2c0,0.5-0.1,1-0.2,1.5c-0.1,0.5-0.3,1-0.6,1.4c-0.3,0.4-0.6,0.8-1,1
		c-0.4,0.3-0.9,0.4-1.4,0.4c-0.4,0-0.8-0.3-1.2-0.9c-0.4-0.6-0.8-1.3-1.4-2c-0.5-0.7-1.3-1.4-2.2-2c-0.9-0.6-2.1-0.9-3.6-0.9
		c-2.4,0-4.3,0.4-5.9,1.3c-1.6,0.8-2.8,2-3.8,3.5c-1,1.5-1.7,3.4-2.1,5.6c-0.5,2.2-0.7,4.6-0.9,7.3c-0.1,1.8-0.1,3.6-0.2,5.4
		c0,1.7-0.1,3.5-0.1,5.3c0,1.8,0,3.6,0,5.6c0,1.9,0,4,0,6.2c0,3.1,0,5.9,0,8.4c0,2.5,0.1,4.5,0.1,6.1c1.3,2.3,2.6,4.3,3.9,6.1
		c1.3,1.8,2.6,3.3,3.8,4.6c1.2,1.2,2.5,2.2,3.8,2.9c1.3,0.7,2.5,1,3.8,1c0.4,0,0.8-0.1,1.2-0.2c0.4-0.1,0.7-0.2,1-0.4
		c0.3-0.1,0.6-0.3,1-0.6l1.4,1.7c-0.4,0.3-1,0.6-1.7,1.1s-1.7,0.8-2.7,1.2c-1.1,0.4-2.3,0.7-3.7,1c-1.4,0.3-2.9,0.4-4.5,0.4
		c-2.4,0-4.7-0.6-6.8-1.7c-2.2-1.2-4.3-2.7-6.3-4.8s-4-4.4-5.8-7.1c-1.8-2.7-3.6-5.6-5.3-8.7s-3.4-6.3-4.9-9.7s-3.1-6.7-4.6-10
		c-1.5-3.3-2.9-6.5-4.3-9.6c-1.4-3.1-2.7-5.9-4-8.5c0,1.7,0,3.5,0,5.3c0,1.8,0,3.6,0,5.5V43c0,2.4-0.1,4.8-0.2,7.1
		c-0.1,2.3-0.4,4.5-0.8,6.6s-1.1,4-1.9,5.7c-0.8,1.7-2,3.2-3.4,4.5c-1.4,1.3-3.2,2.2-5.3,2.9s-4.6,1.1-7.6,1.1
		c-1.5,0-2.9-0.1-4.1-0.3c-1.3-0.2-2.4-0.5-3.3-0.9s-1.6-0.9-2.2-1.5c-0.5-0.6-0.8-1.3-0.8-2c0-0.5,0.1-1,0.2-1.5s0.3-1,0.6-1.4
		s0.6-0.8,1-1c0.4-0.3,0.8-0.4,1.4-0.4c0.3,0,0.6,0.1,0.8,0.4c0.2,0.3,0.5,0.7,0.8,1.1c0.3,0.4,0.6,0.9,1,1.4c0.4,0.5,0.8,1,1.3,1.4
		c0.5,0.4,1.1,0.8,1.9,1.1c0.7,0.3,1.6,0.4,2.6,0.4c2.4,0,4.3-0.4,5.9-1.3c1.6-0.8,2.8-2,3.8-3.6s1.7-3.4,2.1-5.6s0.7-4.6,0.8-7.3
		c0.1-1.8,0.1-3.6,0.2-5.4c0-1.7,0.1-3.5,0.1-5.3c0-1.8,0-3.6,0-5.6S25.1,29.9,25.1,27.7z"/>
	<path class="st0" d="M93.5,49.7c0,0.9,0.1,2,0.4,3.1c0.3,1.1,0.7,2.2,1.2,3.3c0.5,1.1,1.2,2.2,2,3.2c0.8,1,1.7,1.9,2.7,2.7
		s2.1,1.4,3.4,1.9s2.6,0.7,4,0.7c1,0,2-0.1,2.9-0.4s1.7-0.6,2.5-1c0.8-0.4,1.5-0.9,2.2-1.4s1.4-1.1,2.1-1.7l1.1,1.1
		c-0.7,0.9-1.5,1.9-2.6,3s-2.3,2.1-3.8,3.1s-3.2,1.7-5.2,2.4c-2,0.6-4.3,0.9-6.8,0.9s-5-0.5-7.4-1.4s-4.6-2.3-6.4-4.2
		c-1.9-1.8-3.4-4.1-4.5-6.9c-1.1-2.8-1.7-6-1.7-9.7c0-2.7,0.3-5.1,1-7.3c0.7-2.2,1.6-4.2,2.7-6c1.2-1.8,2.5-3.4,4-4.7
		c1.5-1.3,3.2-2.5,4.9-3.4c1.7-0.9,3.4-1.6,5.2-2c1.8-0.5,3.5-0.7,5.1-0.7c2.2,0,4.1,0.2,5.7,0.7c1.6,0.5,3,1.1,4,1.9
		c1.1,0.8,1.9,1.7,2.4,2.7c0.5,1,0.8,2.1,0.8,3.3c0,1.4-0.4,2.6-1.2,3.7s-1.8,2.1-3.2,2.9L93.5,49.7z M102.3,40.8
		c0.4-0.2,0.7-0.5,0.9-0.7c0.2-0.2,0.4-0.5,0.6-0.8c0.1-0.3,0.3-0.7,0.3-1.1c0.1-0.5,0.1-1,0.1-1.7c0-0.7-0.1-1.5-0.2-2.4
		c-0.2-0.9-0.4-1.7-0.8-2.5c-0.4-0.8-0.9-1.5-1.5-2c-0.6-0.5-1.3-0.8-2.1-0.8c-1.1,0-2,0.3-2.7,0.9c-0.7,0.6-1.4,1.4-1.8,2.4
		c-0.5,1-0.9,2.1-1.1,3.4c-0.3,1.3-0.5,2.6-0.6,3.8c-0.1,1.3-0.2,2.5-0.3,3.7c0,1.2,0,2.2,0,3L102.3,40.8z"/>
	<path class="st0" d="M136.6,27.9c-1,0-1.9,0.1-2.8,0.4c-0.8,0.2-1.6,0.5-2.2,0.9s-1.1,0.7-1.5,1.2c-0.4,0.4-0.5,0.8-0.5,1.2
		c0,0.4,0.2,0.8,0.7,0.9c0.5,0.2,1,0.4,1.5,0.7c0.6,0.2,1.1,0.6,1.5,1.1c0.5,0.5,0.7,1.1,0.7,2.1c0,0.6-0.1,1.2-0.4,1.7
		c-0.3,0.5-0.6,1-1,1.4s-0.9,0.7-1.5,0.9c-0.6,0.2-1.2,0.3-1.8,0.3c-1.6,0-3-0.6-4-1.7c-1-1.1-1.5-2.6-1.5-4.4
		c0-1.8,0.5-3.3,1.4-4.6s2.2-2.3,3.7-3.1c1.5-0.8,3.2-1.4,5.1-1.8s3.8-0.6,5.7-0.6c2.3,0,4.5,0.2,6.5,0.7c2.1,0.5,3.9,1.3,5.5,2.4
		c1.6,1.1,2.9,2.5,3.8,4.1s1.4,3.7,1.4,6.1v24.8c0,0.3,0,0.6,0,0.9c0,0.3,0.1,0.6,0.2,0.9s0.3,0.5,0.5,0.7s0.6,0.3,1,0.3
		c0.5,0,1-0.2,1.5-0.6c0.5-0.4,0.9-0.8,1.2-1.2l1.1,0.9c-0.4,0.6-1,1.3-1.6,2s-1.4,1.4-2.2,2.1c-0.9,0.6-1.9,1.2-3.1,1.6
		s-2.5,0.7-4,0.7c-1.8,0-3.5-0.5-4.9-1.6s-2.4-2.8-2.8-5.1c-0.9,1.3-1.9,2.3-2.9,3.2c-1,0.8-2,1.5-3.1,2.1s-2.1,0.9-3.2,1.1
		s-2.1,0.4-3.2,0.4c-1.4,0-2.8-0.2-4.1-0.7s-2.5-1.1-3.5-2.1c-1-1-1.9-2.2-2.5-3.7s-0.9-3.4-0.9-5.6c0-2.7,0.5-4.8,1.6-6.5
		s2.4-3.1,4.2-4.3c1.7-1.2,3.7-2.1,5.8-3c2.2-0.8,4.4-1.7,6.7-2.6c1.7-0.7,2.9-1.7,3.7-3c0.8-1.3,1.2-2.7,1.2-4.1
		c0-2.2-0.6-3.9-1.9-5.2C140.5,28.5,138.8,27.9,136.6,27.9z M143.6,47.1c0-0.7-0.2-1.3-0.7-1.7c-0.5-0.4-1.1-0.6-1.8-0.6
		c-1,0-2,0.2-2.9,0.7c-0.9,0.5-1.7,1.2-2.4,2.1s-1.3,2-1.7,3.4s-0.6,2.9-0.6,4.6c0,1.7,0.1,3.1,0.4,4.2c0.2,1.1,0.6,2,1,2.7
		c0.4,0.7,0.9,1.1,1.5,1.4s1.1,0.4,1.8,0.4c0.8,0,1.5-0.2,2.2-0.6s1.3-0.9,1.8-1.5s0.9-1.3,1.2-2.1c0.3-0.8,0.4-1.5,0.4-2.3V47.1z"
		/>
	<path class="st0" d="M182.9,28.1v32.5c0,1.6,0.3,2.6,0.9,3.2s1.4,0.9,2.4,0.9c0.8,0,1.5-0.2,2.1-0.7s1.1-0.9,1.6-1.5
		c0.5-0.6,1-1.3,1.4-2.2l1.4,0.6c-0.4,0.9-1,2-1.6,3.1s-1.4,2.1-2.4,3.1c-1,1-2.2,1.8-3.8,2.4c-1.5,0.6-3.4,1-5.7,1
		c-1.3,0-2.5-0.2-3.7-0.6c-1.2-0.4-2.2-1-3.2-1.8c-0.9-0.8-1.7-1.8-2.2-3.1s-0.8-2.7-0.8-4.4V28.1h-4.9v-3.2c0.8,0,2-0.2,3.4-0.6
		c1.5-0.4,3-1.1,4.5-2.1c1.5-1,3-2.3,4.3-4s2.3-3.7,2.8-6.2h3.5v13h7.2c2.3,0,3.5-0.4,3.5-1.2c0-0.3-0.1-0.5-0.4-0.6
		c-0.3-0.1-0.6-0.2-1-0.4c-0.4-0.2-0.7-0.4-1-0.7c-0.3-0.3-0.4-0.8-0.4-1.5c0-0.8,0.3-1.5,0.8-1.9c0.5-0.5,1.2-0.7,2-0.7
		c0.5,0,1,0.1,1.4,0.3c0.4,0.2,0.7,0.5,1,0.9c0.3,0.4,0.5,0.8,0.6,1.3c0.1,0.5,0.2,0.9,0.2,1.4c0,1.9-0.5,3.4-1.6,4.5
		c-1.1,1.1-2.9,1.7-5.3,1.7H182.9z"/>
	<path class="st0" d="M247.5,8c-0.8,0-1.7,0.2-2.8,0.5c-1.1,0.3-2.1,0.9-3.2,1.8c-1.1,0.9-2.2,2.1-3.2,3.8c-1.1,1.6-2,3.7-2.8,6.3
		c-0.8,2.6-1.5,5.7-2,9.3c-0.5,3.7-0.8,8-0.8,13c0,4.7,0.3,8.9,0.8,12.3c0.5,3.5,1.2,6.5,2.1,8.9s1.9,4.4,3,6s2.3,2.8,3.5,3.6
		c1.2,0.9,2.5,1.5,3.7,1.8s2.4,0.5,3.5,0.5c1.1,0,2.3-0.1,3.5-0.4s2.3-0.7,3.4-1.3s2.2-1.2,3.3-2s2-1.7,2.9-2.7l2,2
		c-0.9,1.1-1.9,2.2-3.2,3.3s-2.7,2.2-4.3,3.1c-1.6,0.9-3.5,1.7-5.5,2.3s-4.3,0.9-6.7,0.9c-3.8,0-7.4-0.7-10.7-2.2
		c-3.3-1.5-6.2-3.7-8.6-6.8s-4.4-7.1-5.8-11.9c-1.4-4.8-2.1-10.6-2.1-17.4c0-6.3,0.7-11.9,2.2-16.7c1.5-4.8,3.5-8.8,6-12
		s5.5-5.6,8.9-7.3s7-2.4,10.9-2.4c2.5,0,4.9,0.2,7,0.7c2.1,0.5,3.9,1.2,5.4,2.1s2.7,2.1,3.5,3.4c0.8,1.4,1.3,2.9,1.3,4.6
		c0,0.8-0.1,1.6-0.4,2.5c-0.3,0.9-0.7,1.7-1.2,2.4c-0.5,0.7-1.2,1.3-2,1.8c-0.8,0.5-1.7,0.7-2.8,0.7c-0.9,0-1.7-0.2-2.2-0.6
		c-0.5-0.4-0.9-1-1.1-1.6c-0.3-0.7-0.4-1.4-0.5-2.3c-0.1-0.9-0.1-1.8-0.2-2.7c0-0.9-0.1-1.8-0.2-2.7c-0.1-0.9-0.3-1.6-0.6-2.3
		c-0.3-0.7-0.8-1.2-1.3-1.6C249.3,8.2,248.5,8,247.5,8z"/>
	<path class="st0" d="M281,27.9c-1,0-1.9,0.1-2.8,0.4c-0.8,0.2-1.6,0.5-2.2,0.9s-1.1,0.7-1.5,1.2c-0.4,0.4-0.5,0.8-0.5,1.2
		c0,0.4,0.2,0.8,0.7,0.9c0.5,0.2,1,0.4,1.5,0.7c0.6,0.2,1.1,0.6,1.5,1.1c0.5,0.5,0.7,1.1,0.7,2.1c0,0.6-0.1,1.2-0.4,1.7
		c-0.3,0.5-0.6,1-1,1.4s-0.9,0.7-1.5,0.9c-0.6,0.2-1.2,0.3-1.8,0.3c-1.6,0-3-0.6-4-1.7c-1-1.1-1.5-2.6-1.5-4.4
		c0-1.8,0.5-3.3,1.4-4.6s2.2-2.3,3.7-3.1c1.5-0.8,3.2-1.4,5.1-1.8s3.8-0.6,5.7-0.6c2.3,0,4.5,0.2,6.5,0.7c2.1,0.5,3.9,1.3,5.5,2.4
		c1.6,1.1,2.9,2.5,3.8,4.1s1.4,3.7,1.4,6.1v24.8c0,0.3,0,0.6,0,0.9c0,0.3,0.1,0.6,0.2,0.9s0.3,0.5,0.5,0.7s0.6,0.3,1,0.3
		c0.5,0,1-0.2,1.5-0.6c0.5-0.4,0.9-0.8,1.2-1.2l1.1,0.9c-0.4,0.6-1,1.3-1.6,2s-1.4,1.4-2.2,2.1c-0.9,0.6-1.9,1.2-3.1,1.6
		s-2.5,0.7-4,0.7c-1.8,0-3.5-0.5-4.9-1.6s-2.4-2.8-2.8-5.1c-0.9,1.3-1.9,2.3-2.9,3.2c-1,0.8-2,1.5-3.1,2.1s-2.1,0.9-3.2,1.1
		s-2.1,0.4-3.2,0.4c-1.4,0-2.8-0.2-4.1-0.7s-2.5-1.1-3.5-2.1c-1-1-1.9-2.2-2.5-3.7s-0.9-3.4-0.9-5.6c0-2.7,0.5-4.8,1.6-6.5
		s2.4-3.1,4.2-4.3c1.7-1.2,3.7-2.1,5.8-3c2.2-0.8,4.4-1.7,6.7-2.6c1.7-0.7,2.9-1.7,3.7-3c0.8-1.3,1.2-2.7,1.2-4.1
		c0-2.2-0.6-3.9-1.9-5.2C285,28.5,283.2,27.9,281,27.9z M288,47.1c0-0.7-0.2-1.3-0.7-1.7c-0.5-0.4-1.1-0.6-1.8-0.6
		c-1,0-2,0.2-2.9,0.7c-0.9,0.5-1.7,1.2-2.4,2.1s-1.3,2-1.7,3.4s-0.6,2.9-0.6,4.6c0,1.7,0.1,3.1,0.4,4.2c0.2,1.1,0.6,2,1,2.7
		c0.4,0.7,0.9,1.1,1.5,1.4s1.1,0.4,1.8,0.4c0.8,0,1.5-0.2,2.2-0.6s1.3-0.9,1.8-1.5s0.9-1.3,1.2-2.1c0.3-0.8,0.4-1.5,0.4-2.3V47.1z"
		/>
	<path class="st0" d="M334.7,4.6c-0.8,0-1.6,0.2-2.3,0.5S331,6,330.5,6.8c-0.5,0.8-1,1.8-1.3,3c-0.3,1.2-0.5,2.7-0.5,4.4v10.8h9.6
		v3.2h-9.6v34.6c0,4-0.5,7.7-1.6,11c-1,3.4-2.6,6.3-4.7,8.7c-2.1,2.4-4.7,4.4-7.9,5.7s-6.9,2.1-11.1,2.1c-1.5,0-2.9-0.1-4.3-0.4
		c-1.4-0.2-2.6-0.6-3.6-1s-1.9-1-2.5-1.6c-0.6-0.6-0.9-1.3-0.9-2c0-0.5,0.1-1.1,0.2-1.6c0.1-0.5,0.4-1,0.7-1.5s0.7-0.8,1.1-1.1
		c0.4-0.3,0.9-0.4,1.5-0.4c0.3,0,0.6,0.2,0.9,0.5s0.5,0.7,0.8,1.2s0.6,1,0.9,1.6c0.3,0.6,0.8,1.1,1.3,1.6s1.2,0.9,2,1.2
		s1.7,0.5,2.8,0.5c1.5,0,2.8-0.3,4-0.9c1.1-0.6,2.1-1.4,2.9-2.5s1.5-2.3,2.1-3.7s1-3,1.3-4.6s0.5-3.4,0.7-5.1
		c0.1-1.8,0.2-3.6,0.2-5.4V28.1h-8.1v-3.2h8.1v-5.1c0-2.6,0.3-4.8,0.9-6.7c0.6-1.9,1.5-3.6,2.5-4.9c1-1.3,2.2-2.4,3.5-3.3
		c1.3-0.8,2.7-1.5,4-2c1.4-0.5,2.7-0.8,4-1s2.4-0.3,3.4-0.3c2.1,0,3.9,0.2,5.5,0.5s3,0.7,4,1.2c1.1,0.5,1.9,1.1,2.5,1.8
		c0.6,0.7,0.8,1.4,0.8,2.1c0,0.5-0.1,1.1-0.2,1.6c-0.2,0.5-0.4,1-0.7,1.5c-0.3,0.5-0.7,0.8-1.1,1.1c-0.4,0.3-0.9,0.4-1.4,0.4
		c-0.3,0-0.6-0.2-0.9-0.5s-0.5-0.8-0.8-1.3s-0.6-1.1-1-1.7s-0.8-1.2-1.3-1.7s-1.1-1-1.8-1.3S335.7,4.6,334.7,4.6z"/>
	<path class="st0" d="M352.8,49.7c0,0.9,0.1,2,0.4,3.1s0.7,2.2,1.2,3.3c0.5,1.1,1.2,2.2,2,3.2s1.7,1.9,2.7,2.7
		c1,0.8,2.1,1.4,3.4,1.9s2.6,0.7,4,0.7c1,0,2-0.1,2.9-0.4s1.7-0.6,2.5-1s1.5-0.9,2.2-1.4s1.4-1.1,2.1-1.7l1.1,1.1
		c-0.7,0.9-1.5,1.9-2.6,3s-2.3,2.1-3.8,3.1s-3.2,1.7-5.2,2.4s-4.3,0.9-6.8,0.9s-5-0.5-7.4-1.4c-2.4-0.9-4.6-2.3-6.4-4.2
		s-3.4-4.1-4.5-6.9c-1.1-2.8-1.7-6-1.7-9.7c0-2.7,0.3-5.1,1-7.3c0.7-2.2,1.6-4.2,2.7-6c1.2-1.8,2.5-3.4,4-4.7
		c1.5-1.3,3.2-2.5,4.9-3.4c1.7-0.9,3.4-1.6,5.2-2c1.8-0.5,3.5-0.7,5.1-0.7c2.2,0,4.1,0.2,5.7,0.7c1.6,0.5,3,1.1,4,1.9
		s1.9,1.7,2.4,2.7c0.5,1,0.8,2.1,0.8,3.3c0,1.4-0.4,2.6-1.2,3.7s-1.8,2.1-3.2,2.9L352.8,49.7z M361.6,40.8c0.4-0.2,0.7-0.5,0.9-0.7
		c0.2-0.2,0.4-0.5,0.6-0.8s0.3-0.7,0.3-1.1c0.1-0.5,0.1-1,0.1-1.7c0-0.7-0.1-1.5-0.2-2.4c-0.2-0.9-0.4-1.7-0.8-2.5s-0.9-1.5-1.5-2
		s-1.3-0.8-2.1-0.8c-1.1,0-2,0.3-2.7,0.9c-0.7,0.6-1.4,1.4-1.8,2.4c-0.5,1-0.9,2.1-1.1,3.4s-0.5,2.6-0.6,3.8
		c-0.1,1.3-0.2,2.5-0.3,3.7s0,2.2,0,3L361.6,40.8z M352.9,18.6l12-11.6c0.5-0.4,1-0.8,1.6-1.1c0.6-0.3,1.1-0.4,1.7-0.4
		c0.5,0,1,0.1,1.5,0.4c0.5,0.2,0.9,0.6,1.2,1c0.4,0.4,0.6,0.9,0.8,1.4c0.2,0.5,0.3,1,0.3,1.6c0,0.8-0.3,1.4-0.8,2
		c-0.5,0.6-1.1,1-1.8,1.3l-15.6,6.6L352.9,18.6z"/>
</g>
</svg>
