<?xml version="1.0" encoding="iso-8859-1"?>
<!-- Generator: Adobe Illustrator 19.0.0, SVG Export Plug-In . SVG Version: 6.00 Build 0)  -->
<svg version="1.1" id="Capa_1" xmlns="http://www.w3.org/2000/svg" xmlns:xlink="http://www.w3.org/1999/xlink" x="0px" y="0px"
	 viewBox="0 0 480.046 480.046" style="enable-background:new 0 0 480.046 480.046;" xml:space="preserve">
<g>
	<g>
		<path d="M452.046,424.023h-84v16h84c6.627,0,12,5.373,12,12c0,6.627-5.373,12-12,12h-424c-6.627,0-12-5.373-12-12
			c0-6.627,5.373-12,12-12h84v-16h-84c-15.464,0-28,12.536-28,28c0,15.464,12.536,28,28,28h424c15.464,0,28-12.536,28-28
			C480.046,436.559,467.51,424.023,452.046,424.023z"/>
	</g>
</g>
<g>
	<g>
		<path d="M256.046,0.023c-30.928,0-56,25.072-56,56c-0.042,17.605,7.964,34.265,21.736,45.232l1.264,1.016
			c10.768,8.569,17.03,21.59,17,35.352v6.4h16v-6.4c0.046-18.628-8.426-36.255-23-47.856l-1.264-1.016
			c-9.966-7.935-15.762-19.989-15.736-32.728c0-22.091,17.909-40,40-40c22.091,0,40,17.909,40,40v1.04
			c0.006,8.258-6.683,14.957-14.941,14.963c-0.108,0-0.216-0.001-0.323-0.003h-1.456c-8.437-0.013-15.271-6.851-15.28-15.288v-8.712
			h-16v8.712c0.018,17.269,14.011,31.266,31.28,31.288h1.456c17.176,0.066,31.163-13.785,31.264-30.96v-1.04
			C312.046,25.095,286.974,0.023,256.046,0.023z"/>
	</g>
</g>
<g>
	<g>
		<path d="M400.046,24.023c-17.673,0-32,14.327-32,32v8h16v-8c0-8.837,7.163-16,16-16s16,7.163,16,16v3.648
			c0,5.165-2.494,10.012-6.696,13.016l-26.4,18.872c-14.354,10.264-22.881,26.818-22.904,44.464h16
			c0.014-12.473,6.036-24.177,16.176-31.44l26.4-18.872c8.409-6.01,13.407-15.704,13.424-26.04v-3.648
			C432.046,38.35,417.719,24.023,400.046,24.023z"/>
	</g>
</g>
<g>
	<g>
		<path d="M445.03,160.023c-10.642-0.027-20.712,4.815-27.336,13.144l-9.648,12.056v-17.2c0-4.418-3.582-8-8-8h-81.12
			c15.957-14.245,25.092-34.61,25.12-56h-16c0.01,21.734-11.865,41.733-30.952,52.128l-7.088,3.872h-130.4
			C155.194,116.061,115.979,84,72.017,88.412c-43.962,4.412-76.023,43.627-71.611,87.589c3.801,37.875,33.764,67.827,71.64,71.614
			v40.408c0.093,79.491,64.509,143.907,144,144h48c79.491-0.093,143.907-64.509,144-144v-77.192l22.144-27.672
			c6.554-8.2,18.515-9.535,26.716-2.98c4.516,3.61,7.144,9.079,7.14,14.86v2.584c0.037,20.718-6.438,40.924-18.512,57.76
			c-14.01,19.543-21.527,42.994-21.488,67.04v13.6h16v-13.6c-0.037-20.718,6.438-40.924,18.512-57.76
			c14.01-19.543,21.527-42.994,21.488-67.04v-2.576C480.033,175.713,464.365,160.041,445.03,160.023z M72.046,168.023v63.448
			c-11.377-1.427-22.157-5.902-31.2-12.952l20.84-20.84L50.39,186.367l-20.84,20.856c-7.05-9.043-11.525-19.823-12.952-31.2h47.448
			v-16H16.598c1.427-11.377,5.902-22.157,12.952-31.2l20.8,20.84l11.312-11.312l-20.816-20.824
			c9.043-7.05,19.823-11.525,31.2-12.952v47.448h16v-47.448c28.957,3.692,51.756,26.491,55.448,55.448H80.046
			C75.628,160.023,72.046,163.605,72.046,168.023z M392.046,264.023h-192v16h192v8c-0.084,70.658-57.342,127.916-128,128h-48
			c-70.658-0.084-127.916-57.342-128-128v-8h96v-16h-96v-88h177.12c-15.957,14.245-25.092,34.61-25.12,56v8h16v-8
			c-0.01-21.734,11.865-41.733,30.952-52.128l7.088-3.872h97.96V264.023z"/>
	</g>
</g>
<g>
	<g>
		<rect x="101.623" y="128.026" transform="matrix(0.8321 -0.5547 0.5547 0.8321 -55.9637 87.2167)" width="28.848" height="16"/>
	</g>
</g>
<g>
</g>
<g>
</g>
<g>
</g>
<g>
</g>
<g>
</g>
<g>
</g>
<g>
</g>
<g>
</g>
<g>
</g>
<g>
</g>
<g>
</g>
<g>
</g>
<g>
</g>
<g>
</g>
<g>
</g>
</svg>
